<svg xmlns="http://www.w3.org/2000/svg" width="35.156" height="13.406" viewBox="0 0 35.156 13.406">
  <metadata><?xpacket begin="﻿" id="W5M0MpCehiHzreSzNTczkc9d"?>
<x:xmpmeta xmlns:x="adobe:ns:meta/" x:xmptk="Adobe XMP Core 5.6-c138 79.159824, 2016/09/14-01:09:01        ">
   <rdf:RDF xmlns:rdf="http://www.w3.org/1999/02/22-rdf-syntax-ns#">
      <rdf:Description rdf:about=""/>
   </rdf:RDF>
</x:xmpmeta>
                                                                                                    
                                                                                                    
                                                                                                    
                                                                                                    
                                                                                                    
                                                                                                    
                                                                                                    
                                                                                                    
                                                                                                    
                                                                                                    
                                                                                                    
                                                                                                    
                                                                                                    
                                                                                                    
                                                                                                    
                                                                                                    
                                                                                                    
                                                                                                    
                                                                                                    
                                                                                                    
                           
<?xpacket end="w"?></metadata>
<defs>
    <style>
      .cls-1 {
        fill: #0b1538;
        fill-rule: evenodd;
      }
    </style>
  </defs>
  <path id="accessories" class="cls-1" d="M929.142,461.715h-3.221a6.673,6.673,0,0,0-12.805-1.37,2.872,2.872,0,0,0-3.121,0,6.673,6.673,0,0,0-12.832,1.547h-3.156v1.822h3.156a6.679,6.679,0,0,0,13.3-.91,1.093,1.093,0,1,1,2.186,0,6.68,6.68,0,0,0,13.322.733h3.172v-1.822Zm-25.361,5.973a4.884,4.884,0,1,1,4.866-4.884A4.881,4.881,0,0,1,903.781,467.688Zm15.548,0A4.884,4.884,0,1,1,924.2,462.8,4.881,4.881,0,0,1,919.329,467.688Z" transform="translate(-894 -456.094)"/>
</svg>
