<svg xmlns="http://www.w3.org/2000/svg" width="29.813" height="26.188" viewBox="0 0 29.813 26.188">
  <metadata><?xpacket begin="﻿" id="W5M0MpCehiHzreSzNTczkc9d"?>
<x:xmpmeta xmlns:x="adobe:ns:meta/" x:xmptk="Adobe XMP Core 5.6-c138 79.159824, 2016/09/14-01:09:01        ">
   <rdf:RDF xmlns:rdf="http://www.w3.org/1999/02/22-rdf-syntax-ns#">
      <rdf:Description rdf:about=""/>
   </rdf:RDF>
</x:xmpmeta>
                                                                                                    
                                                                                                    
                                                                                                    
                                                                                                    
                                                                                                    
                                                                                                    
                                                                                                    
                                                                                                    
                                                                                                    
                                                                                                    
                                                                                                    
                                                                                                    
                                                                                                    
                                                                                                    
                                                                                                    
                                                                                                    
                                                                                                    
                                                                                                    
                                                                                                    
                                                                                                    
                           
<?xpacket end="w"?></metadata>
<defs>
    <style>
      .cls-1 {
        fill: #ae3b39;
        fill-rule: evenodd;
      }
    </style>
  </defs>
  <path id="Add-goods" class="cls-1" d="M363.713,296.139l-3.172,8.457a1.48,1.48,0,0,1-1.374.96H346.324l1.395,3.719a0.235,0.235,0,0,0,.219.152H359.52a0.581,0.581,0,0,1,.072,0,2.876,2.876,0,1,1-2.993,2.873,2.893,2.893,0,0,1,.5-1.626h-7.687a2.893,2.893,0,0,1,.5,1.626,2.842,2.842,0,1,1-3.432-2.815l-1.587-4.23a0.622,0.622,0,0,1-.052-0.107l-3.82-10.183a0.589,0.589,0,0,1-.03-0.11l-1.67-4.452a0.237,0.237,0,0,0-.22-0.157h-4.482a0.626,0.626,0,0,1,0-1.251H339.1a1.476,1.476,0,0,1,1.376.967l1.559,4.155H362.34a1.466,1.466,0,0,1,1.209.643A1.5,1.5,0,0,1,363.713,296.139Zm-4.273,17.792a1.626,1.626,0,1,0-1.605-1.626A1.618,1.618,0,0,0,359.44,313.931Zm-0.273-9.626a0.236,0.236,0,0,0,.219-0.153l3.172-8.458a0.232,0.232,0,0,0-.026-0.218,0.227,0.227,0,0,0-.192-0.1H342.5l3.351,8.932h13.312Zm-12.1,9.626a1.626,1.626,0,1,0-1.606-1.626A1.618,1.618,0,0,0,347.069,313.931Z" transform="translate(-334 -289)"/>
</svg>
