<svg xmlns="http://www.w3.org/2000/svg" width="41" height="42" viewBox="0 0 41 42">
  <metadata><?xpacket begin="﻿" id="W5M0MpCehiHzreSzNTczkc9d"?>
<x:xmpmeta xmlns:x="adobe:ns:meta/" x:xmptk="Adobe XMP Core 5.6-c138 79.159824, 2016/09/14-01:09:01        ">
   <rdf:RDF xmlns:rdf="http://www.w3.org/1999/02/22-rdf-syntax-ns#">
      <rdf:Description rdf:about=""/>
   </rdf:RDF>
</x:xmpmeta>
                                                                                                    
                                                                                                    
                                                                                                    
                                                                                                    
                                                                                                    
                                                                                                    
                                                                                                    
                                                                                                    
                                                                                                    
                                                                                                    
                                                                                                    
                                                                                                    
                                                                                                    
                                                                                                    
                                                                                                    
                                                                                                    
                                                                                                    
                                                                                                    
                                                                                                    
                                                                                                    
                           
<?xpacket end="w"?></metadata>
<defs>
    <style>
      .cls-1 {
        fill: #2b2a29;
        fill-rule: evenodd;
      }
    </style>
  </defs>
  <path id="add-folder" class="cls-1" d="M1645,1368h-34v24h14.75v3H1612a4,4,0,0,1-4-4v-22a4.091,4.091,0,0,1,.14-1H1608v-4a3,3,0,0,1,3-3h12a3,3,0,0,1,3,3v1h18a4,4,0,0,1,4,4v11l-3,.06V1368Zm-5.5,16a9.5,9.5,0,1,1-9.5,9.5A9.5,9.5,0,0,1,1639.5,1384Zm-4.5,11h3v3h3v-3h3v-3h-3v-3h-3v3h-3v3Z" transform="translate(-1608 -1361)"/>
</svg>
