<svg xmlns="http://www.w3.org/2000/svg" width="26.12" height="31" viewBox="0 0 26.12 31">
  <metadata><?xpacket begin="﻿" id="W5M0MpCehiHzreSzNTczkc9d"?>
<x:xmpmeta xmlns:x="adobe:ns:meta/" x:xmptk="Adobe XMP Core 5.6-c138 79.159824, 2016/09/14-01:09:01        ">
   <rdf:RDF xmlns:rdf="http://www.w3.org/1999/02/22-rdf-syntax-ns#">
      <rdf:Description rdf:about=""/>
   </rdf:RDF>
</x:xmpmeta>
                                                                                                    
                                                                                                    
                                                                                                    
                                                                                                    
                                                                                                    
                                                                                                    
                                                                                                    
                                                                                                    
                                                                                                    
                                                                                                    
                                                                                                    
                                                                                                    
                                                                                                    
                                                                                                    
                                                                                                    
                                                                                                    
                                                                                                    
                                                                                                    
                                                                                                    
                                                                                                    
                           
<?xpacket end="w"?></metadata>
<defs>
    <style>
      .cls-1 {
        fill: #dc3e44;
        fill-rule: evenodd;
      }
    </style>
  </defs>
  <path id="basket" class="cls-1" d="M1447.89,146h-24.83a0.653,0.653,0,0,1-.53-0.268,0.638,0.638,0,0,1-.09-0.582l1.28-3.8,1.3-15.42a0.65,0.65,0,0,1,.65-0.592h1.51l3.76-9.913s0-.008.01-0.013V115.4a0.371,0.371,0,0,1,.06-0.086,0.558,0.558,0,0,1,.08-0.114,0.468,0.468,0,0,1,.1-0.07,0.459,0.459,0,0,1,.1-0.067,0.785,0.785,0,0,1,.14-0.032,0.708,0.708,0,0,1,.1-0.02,0.587,0.587,0,0,1,.14.022,0.7,0.7,0,0,1,.11.017s0.01,0.006.01,0.008l0.02,0,4.16,1.765,0.99-.982a0.167,0.167,0,0,1,.02-0.008,0.011,0.011,0,0,1,.01-0.012,0.411,0.411,0,0,1,.1-0.061,0.454,0.454,0,0,1,.11-0.064,0.425,0.425,0,0,1,.12-0.023,0.555,0.555,0,0,1,.12-0.019,0.725,0.725,0,0,1,.12.023,0.658,0.658,0,0,1,.12.03,0.442,0.442,0,0,1,.11.071,0.787,0.787,0,0,1,.1.063,0.011,0.011,0,0,0,.01.011s0,0.005.01,0.009l7.18,7.748a0.45,0.45,0,0,1,.06.1,0.553,0.553,0,0,1,.07.108,0.5,0.5,0,0,1,.02.122,0.51,0.51,0,0,1,.02.12,0.518,0.518,0,0,1-.02.123c-0.01.04-.02,0.08-0.03,0.118a0.586,0.586,0,0,1-.08.109,0.388,0.388,0,0,1-.06.093l-0.84.835h1.03a0.643,0.643,0,0,1,.65.592l1.3,15.42,1.25,3.686a0.679,0.679,0,0,1,.08.319A0.647,0.647,0,0,1,1447.89,146Zm-15.97-29.489-2.62,6.907,5.68-5.612Zm5.49,0.719-8.2,8.107h13.17l1.33-1.311Zm8.54,24.454a0.4,0.4,0,0,1-.03-0.15l-1.26-14.905h-18.39l-1.25,14.905a0.812,0.812,0,0,1-.04.15l-1.01,3.024h23Zm-15.05-13.764a1.294,1.294,0,0,1,1.3,1.291,1.262,1.262,0,0,1-.5,1,3.908,3.908,0,0,0,7.54,0,1.271,1.271,0,0,1-.51-1,1.305,1.305,0,0,1,2.61,0,1.288,1.288,0,0,1-.8,1.192,5.221,5.221,0,0,1-10.14,0,1.282,1.282,0,0,1-.81-1.192A1.3,1.3,0,0,1,1430.9,127.918Zm6.99-7.292a0.666,0.666,0,0,1-.93,0,0.649,0.649,0,0,1,0-.913l0.66-.646a0.654,0.654,0,0,1,.92,0,0.632,0.632,0,0,1,0,.913Zm-1.31,1.291-2.61,2.583a0.651,0.651,0,0,1-.46.19,0.647,0.647,0,0,1-.46-1.1l2.61-2.583a0.654,0.654,0,0,1,.92,0A0.632,0.632,0,0,1,1436.58,121.917Z" transform="translate(-1422.41 -115)"/>
</svg>
