<svg xmlns="http://www.w3.org/2000/svg" width="29.25" height="24.312" viewBox="0 0 29.25 24.312">
    <metadata><?xpacket begin="﻿" id="W5M0MpCehiHzreSzNTczkc9d"?>
        <x:xmpmeta xmlns:x="adobe:ns:meta/" x:xmptk="Adobe XMP Core 5.6-c138 79.159824, 2016/09/14-01:09:01        ">
            <rdf:RDF xmlns:rdf="http://www.w3.org/1999/02/22-rdf-syntax-ns#">
                <rdf:Description rdf:about=""/>
            </rdf:RDF>
        </x:xmpmeta>
        <?xpacket end="w"?></metadata>
    <defs>
        <style>
            .cls-1 {
            fill: #dc3e44;
            fill-rule: evenodd;
            }
        </style>
    </defs>
    <path id="Bills" class="cls-1" d="M366.822,562.254a11.148,11.148,0,0,1-4.119,2.961,0.6,0.6,0,0,1-.236.047,0.611,0.611,0,0,1-.235-0.046,11.344,11.344,0,0,1-3.6-2.395,9.053,9.053,0,0,1-2.4-4.108H341.3a1.567,1.567,0,0,1-1.557-1.574V542.524a1.567,1.567,0,0,1,1.557-1.574h21.841a1.567,1.567,0,0,1,1.558,1.574v9.848a10.5,10.5,0,0,0,3.692.417,0.623,0.623,0,0,1,.619.626v2.871A8.936,8.936,0,0,1,366.822,562.254Zm-10.276-9.465a20.169,20.169,0,0,0,2.192-.078q0.1-.011.2-0.024a6.5,6.5,0,0,0,.693-0.127c0.112-.027.222-0.057,0.327-0.09,0.053-.017.107-0.034,0.159-0.053,0.106-.037.211-0.078,0.311-0.121,0.051-.022.1-0.046,0.152-0.07a4.229,4.229,0,0,0,.538-0.311l0.087-.061a4.468,4.468,0,0,0,.467-0.386v-0.029l0.065-.033c0.1-.1.185-0.188,0.269-0.284l0.146-.13,0.047-.012,0.019,0.076,0.055,0.056-0.069-.139,0.073,0.137h0l-0.043-.151,0.226-.047,0.031,0.157h0l0.01-.156,0.025,0,0.013,0.158,0.02-.154,0.178,0.055,0.241,0.2,0.1,0.111c0.04,0.042.08,0.083,0.118,0.12l0.023,0.023c0.036,0.034.072,0.068,0.109,0.1,0.055,0.05.092,0.082,0.128,0.113v-4.328h-22.48v9.825a0.321,0.321,0,0,0,.319.323H356c-0.006-.05-0.012-0.1-0.017-0.15l-0.041-.538c0-.057,0-0.115-0.007-0.174v-0.045c0-.1,0-0.184,0-0.265v-2.875A0.623,0.623,0,0,1,356.546,552.789Zm6.157-1.656h0Zm-0.1-.044h0Zm-0.423.08h0Zm0.114-.067h0Zm1.23,1.918h0Zm0.137,0.253-0.062-.033c-0.05-.027-0.1-0.054-0.148-0.083l-0.034-.02c-0.053-.031-0.094-0.056-0.134-0.082l0.053-.15h0l-0.08.133c-0.074-.048-0.123-0.081-0.173-0.115l-0.054-.04c-0.051-.035-0.09-0.063-0.128-0.092l-0.026-.019c-0.048-.037-0.1-0.077-0.154-0.123l-0.22-.19-0.034-.032a5.533,5.533,0,0,1-.546.446l-0.113.079a5.44,5.44,0,0,1-.7.4l-0.195.09-0.03.012c-0.118.051-.241,0.1-0.365,0.142-0.067.023-.134,0.046-0.2,0.066l-0.1.029-0.09-.136h0l0.044,0.15-0.054.016-0.205.053a7.725,7.725,0,0,1-.819.15l-0.226.028h0a16.815,16.815,0,0,1-1.706.083v2.248c0,0.074,0,.144,0,0.214v0.031c0,0.08,0,.131.007,0.182l0.017,0.266c0,0.054.009,0.1,0.014,0.156l0.052,0.415c0.011,0.076.021,0.132,0.03,0.186l0.008,0.012,0.011,0.091,0.023,0.121a8.763,8.763,0,0,0,5.136,6,8.411,8.411,0,0,0,5.3-7.67v-2.247a9.129,9.129,0,0,1-3.961-.691Zm-6.647,3.247h0Zm6.444-10.457v-3.539a0.322,0.322,0,0,0-.32-0.323H341.3a0.321,0.321,0,0,0-.319.323v3.539h22.48Zm-12.9,9.214h-6.194a0.626,0.626,0,0,1,0-1.251h6.194A0.626,0.626,0,0,1,350.563,555.277Z" transform="translate(-339.75 -540.938)"/>
</svg>
