<svg xmlns="http://www.w3.org/2000/svg" width="25.906" height="18.406" viewBox="0 0 25.906 18.406">
  <metadata><?xpacket begin="﻿" id="W5M0MpCehiHzreSzNTczkc9d"?>
<x:xmpmeta xmlns:x="adobe:ns:meta/" x:xmptk="Adobe XMP Core 5.6-c138 79.159824, 2016/09/14-01:09:01        ">
   <rdf:RDF xmlns:rdf="http://www.w3.org/1999/02/22-rdf-syntax-ns#">
      <rdf:Description rdf:about=""/>
   </rdf:RDF>
</x:xmpmeta>
                                                                                                    
                                                                                                    
                                                                                                    
                                                                                                    
                                                                                                    
                                                                                                    
                                                                                                    
                                                                                                    
                                                                                                    
                                                                                                    
                                                                                                    
                                                                                                    
                                                                                                    
                                                                                                    
                                                                                                    
                                                                                                    
                                                                                                    
                                                                                                    
                                                                                                    
                                                                                                    
                           
<?xpacket end="w"?></metadata>
<defs>
    <style>
      .cls-1 {
        fill: #2b2a29;
        fill-rule: evenodd;
      }
    </style>
  </defs>
  <path id="card" class="cls-1" d="M364.671,510.654H341.426a1.325,1.325,0,0,1-1.317-1.33V493.593a1.325,1.325,0,0,1,1.317-1.33h23.245a1.325,1.325,0,0,1,1.317,1.33v15.731A1.325,1.325,0,0,1,364.671,510.654Zm0.079-17.061a0.08,0.08,0,0,0-.079-0.08H341.426a0.079,0.079,0,0,0-.078.08v3.977h23.4v-3.977Zm0,5.227h-23.4v10.5a0.079,0.079,0,0,0,.078.08h23.245a0.08,0.08,0,0,0,.079-0.08v-10.5Zm-5.325,8.849a2.633,2.633,0,1,1,2.608-2.633A2.623,2.623,0,0,1,359.425,507.669Zm1.369-2.633a1.37,1.37,0,1,0-1.369,1.383A1.378,1.378,0,0,0,360.794,505.036Zm-9.465,2.051h-6.435a0.625,0.625,0,0,1,0-1.25h6.435A0.625,0.625,0,0,1,351.329,507.087Z" transform="translate(-340.094 -492.25)"/>
</svg>
