<svg xmlns="http://www.w3.org/2000/svg" width="21" height="21" viewBox="0 0 21 21">
  <metadata><?xpacket begin="﻿" id="W5M0MpCehiHzreSzNTczkc9d"?>
<x:xmpmeta xmlns:x="adobe:ns:meta/" x:xmptk="Adobe XMP Core 5.6-c138 79.159824, 2016/09/14-01:09:01        ">
   <rdf:RDF xmlns:rdf="http://www.w3.org/1999/02/22-rdf-syntax-ns#">
      <rdf:Description rdf:about=""/>
   </rdf:RDF>
</x:xmpmeta>
                                                                                                    
                                                                                                    
                                                                                                    
                                                                                                    
                                                                                                    
                                                                                                    
                                                                                                    
                                                                                                    
                                                                                                    
                                                                                                    
                                                                                                    
                                                                                                    
                                                                                                    
                                                                                                    
                                                                                                    
                                                                                                    
                                                                                                    
                                                                                                    
                                                                                                    
                                                                                                    
                           
<?xpacket end="w"?></metadata>
<defs>
    <style>
      .cls-1 {
        fill: #2b2a29;
        fill-rule: evenodd;
      }
    </style>
  </defs>
  <path id="Choose-categories" class="cls-1" d="M1309.44,482.37a1.978,1.978,0,0,0-1.87,1.944,1.942,1.942,0,0,0,.56,1.4h0a1.866,1.866,0,0,0,.29.246,0.587,0.587,0,0,1,.17.782,10.435,10.435,0,0,1-4.1,3.992,0.6,0.6,0,0,1-.78-0.2,1.974,1.974,0,0,0-3.62.916,0.588,0.588,0,0,1-.59.544h-0.01a10.482,10.482,0,0,1-5.49-1.561,0.584,0.584,0,0,1-.22-0.771,1.974,1.974,0,0,0-2.25-2.805,2.161,2.161,0,0,0-.36.129,0.584,0.584,0,0,1-.76-0.24A10.509,10.509,0,0,1,1289,481.2a0.592,0.592,0,0,1,.56-0.575,1.976,1.976,0,0,0,1.87-1.943,1.939,1.939,0,0,0-.56-1.4,1.813,1.813,0,0,0-.29-0.246,0.587,0.587,0,0,1-.17-0.782,10.435,10.435,0,0,1,4.1-3.992,0.582,0.582,0,0,1,.77.2,1.98,1.98,0,0,0,3.63-.917,0.587,0.587,0,0,1,.59-0.543h0.01a10.481,10.481,0,0,1,5.49,1.56,0.585,0.585,0,0,1,.22.772,1.975,1.975,0,0,0,2.25,2.805,2.161,2.161,0,0,0,.36-0.129,0.584,0.584,0,0,1,.76.239A10.516,10.516,0,0,1,1310,481.8,0.6,0.6,0,0,1,1309.44,482.37Zm-0.91-3.155a9.436,9.436,0,0,0-.73-1.942c-0.01,0-.03.008-0.04,0.012a3.167,3.167,0,0,1-3.84-2.287,3.082,3.082,0,0,1,.04-1.677,9.328,9.328,0,0,0-3.97-1.125,3.161,3.161,0,0,1-5.35,1.354,9.338,9.338,0,0,0-2.95,2.875l0.03,0.031a3.094,3.094,0,0,1,.89,2.246,3.145,3.145,0,0,1-2.42,3.029,9.274,9.274,0,0,0,1.01,4c0.01,0,.03-0.008.04-0.012a3.167,3.167,0,0,1,3.84,2.287,3.078,3.078,0,0,1-.04,1.676,9.328,9.328,0,0,0,3.97,1.125,3.16,3.16,0,0,1,5.35-1.353,9.33,9.33,0,0,0,2.95-2.876l-0.03-.031a3.092,3.092,0,0,1-.89-2.246,3.145,3.145,0,0,1,2.42-3.028A8.952,8.952,0,0,0,1308.53,479.215Zm-7.68,7.611a5.5,5.5,0,1,1,3.37-2.513A5.474,5.474,0,0,1,1300.85,486.826Zm2.83-6.384a4.269,4.269,0,0,0-1.97-2.645,4.316,4.316,0,0,0-2.2-.609,4.4,4.4,0,0,0-1.07.133A4.308,4.308,0,1,0,1303.68,480.442Zm-3.48,3.834a2.8,2.8,0,0,1-.7.088A2.871,2.871,0,1,1,1300.2,484.276Zm0.93-3.189a1.683,1.683,0,0,0-1.63-1.268,1.646,1.646,0,0,0-.41.052A1.679,1.679,0,1,0,1301.13,481.087Z" transform="translate(-1289 -471)"/>
</svg>
