<svg xmlns="http://www.w3.org/2000/svg" width="21" height="21" viewBox="0 0 21 21">
  <metadata><?xpacket begin="﻿" id="W5M0MpCehiHzreSzNTczkc9d"?>
<x:xmpmeta xmlns:x="adobe:ns:meta/" x:xmptk="Adobe XMP Core 5.6-c138 79.159824, 2016/09/14-01:09:01        ">
   <rdf:RDF xmlns:rdf="http://www.w3.org/1999/02/22-rdf-syntax-ns#">
      <rdf:Description rdf:about=""/>
   </rdf:RDF>
</x:xmpmeta>
                                                                                                    
                                                                                                    
                                                                                                    
                                                                                                    
                                                                                                    
                                                                                                    
                                                                                                    
                                                                                                    
                                                                                                    
                                                                                                    
                                                                                                    
                                                                                                    
                                                                                                    
                                                                                                    
                                                                                                    
                                                                                                    
                                                                                                    
                                                                                                    
                                                                                                    
                                                                                                    
                           
<?xpacket end="w"?></metadata>
<defs>
    <style>
      .cls-1 {
        fill: #2b2a29;
        fill-rule: evenodd;
      }
    </style>
  </defs>
  <path id="city-phone" class="cls-1" d="M960.628,652A15.73,15.73,0,0,1,945,636.372a3.422,3.422,0,0,1,1.168-2.574l2.37-2.258a1.949,1.949,0,0,1,2.964.322l2.414,3.378a1.937,1.937,0,0,1,.363,1.132,1.958,1.958,0,0,1-.661,1.463l-1.938,1.712a1.111,1.111,0,0,0-.331.734,7.128,7.128,0,0,0,5.362,5.37h0.008a1.121,1.121,0,0,0,.753-0.353l1.693-1.916a1.994,1.994,0,0,1,2.593-.3l3.39,2.421a1.949,1.949,0,0,1,.312,2.958l-2.272,2.385A3.412,3.412,0,0,1,960.628,652Zm-10.744-20.024a0.97,0.97,0,0,0-.673.271l-2.384,2.272a2.458,2.458,0,0,0-.85,1.853,14.754,14.754,0,0,0,14.651,14.651,2.444,2.444,0,0,0,1.839-.835l2.286-2.4a0.974,0.974,0,0,0-.163-1.483l-3.4-2.428a1,1,0,0,0-1.294.151l-1.713,1.937a2.084,2.084,0,0,1-1.461.662h-0.012a7.978,7.978,0,0,1-6.339-6.352,2.056,2.056,0,0,1,.64-1.439l1.959-1.734a0.979,0.979,0,0,0,.331-0.731,0.965,0.965,0,0,0-.18-0.563l-2.421-3.39A0.989,0.989,0,0,0,949.884,631.976Z" transform="translate(-945 -631)"/>
</svg>
