<svg xmlns="http://www.w3.org/2000/svg" width="31.562" height="20.313" viewBox="0 0 31.562 20.313">
  <metadata><?xpacket begin="﻿" id="W5M0MpCehiHzreSzNTczkc9d"?>
<x:xmpmeta xmlns:x="adobe:ns:meta/" x:xmptk="Adobe XMP Core 5.6-c138 79.159824, 2016/09/14-01:09:01        ">
   <rdf:RDF xmlns:rdf="http://www.w3.org/1999/02/22-rdf-syntax-ns#">
      <rdf:Description rdf:about=""/>
   </rdf:RDF>
</x:xmpmeta>
                                                                                                    
                                                                                                    
                                                                                                    
                                                                                                    
                                                                                                    
                                                                                                    
                                                                                                    
                                                                                                    
                                                                                                    
                                                                                                    
                                                                                                    
                                                                                                    
                                                                                                    
                                                                                                    
                                                                                                    
                                                                                                    
                                                                                                    
                                                                                                    
                                                                                                    
                                                                                                    
                           
<?xpacket end="w"?></metadata>
<defs>
    <style>
      .cls-1 {
        fill: #ae3b39;
        fill-rule: evenodd;
      }
    </style>
  </defs>
  <path id="Clothes" class="cls-1" d="M771.765,467.405l-3.836-13.581V450.9a0.9,0.9,0,0,0-.906-0.9H744.968a0.9,0.9,0,0,0-.906.9v3.03l-3.823,13.478a0.9,0.9,0,0,0,.737,1.139l11.722,1.772a0.772,0.772,0,0,0,.136.011,0.907,0.907,0,0,0,.792-0.466l2.385-4.3,2.374,4.263a0.909,0.909,0,0,0,.925.456l11.716-1.736A0.9,0.9,0,0,0,771.765,467.405Zm-5.649-15.6v1.346H745.875V451.8h20.241Zm-6.452,16.6-2.862-5.141a0.9,0.9,0,0,0-.792-0.465h0a0.909,0.909,0,0,0-.792.465l-2.871,5.175-10.083-1.524,3.391-11.952H755.1v3.95a0.906,0.906,0,0,0,1.812,0v-3.95h9.458l3.376,11.949Z" transform="translate(-740.219 -450)"/>
</svg>
