<svg xmlns="http://www.w3.org/2000/svg" width="17" height="17" viewBox="0 0 17 17">
  <metadata><?xpacket begin="﻿" id="W5M0MpCehiHzreSzNTczkc9d"?>
<x:xmpmeta xmlns:x="adobe:ns:meta/" x:xmptk="Adobe XMP Core 5.6-c138 79.159824, 2016/09/14-01:09:01        ">
   <rdf:RDF xmlns:rdf="http://www.w3.org/1999/02/22-rdf-syntax-ns#">
      <rdf:Description rdf:about=""/>
   </rdf:RDF>
</x:xmpmeta>
                                                                                                    
                                                                                                    
                                                                                                    
                                                                                                    
                                                                                                    
                                                                                                    
                                                                                                    
                                                                                                    
                                                                                                    
                                                                                                    
                                                                                                    
                                                                                                    
                                                                                                    
                                                                                                    
                                                                                                    
                                                                                                    
                                                                                                    
                                                                                                    
                                                                                                    
                                                                                                    
                           
<?xpacket end="w"?></metadata>
<defs>
    <style>
      .cls-1 {
        fill: #ae3b39;
        fill-rule: evenodd;
      }
    </style>
  </defs>
  <path id="delete" class="cls-1" d="M1234.11,457.305v11.334a2.365,2.365,0,0,1-2.36,2.361h-8.5a2.365,2.365,0,0,1-2.36-2.361V457.305H1219v-0.944h5.19v-0.945a1.421,1.421,0,0,1,1.42-1.416h3.78a1.421,1.421,0,0,1,1.42,1.416v0.945H1236v0.944h-1.89Zm-4.25-1.889a0.471,0.471,0,0,0-.47-0.472h-3.78a0.471,0.471,0,0,0-.47.472v0.945h4.72v-0.945Zm3.31,1.889h-11.34v11.334a1.421,1.421,0,0,0,1.42,1.416h8.5a1.421,1.421,0,0,0,1.42-1.416V457.305Zm-3.31,1.889h0.95v8.972h-0.95v-8.972Zm-2.83,0h0.94v8.972h-0.94v-8.972Zm-2.84,0h0.95v8.972h-0.95v-8.972Z" transform="translate(-1219 -454)"/>
</svg>
