<svg xmlns="http://www.w3.org/2000/svg" width="23" height="16" viewBox="0 0 23 16">
  <metadata><?xpacket begin="﻿" id="W5M0MpCehiHzreSzNTczkc9d"?>
<x:xmpmeta xmlns:x="adobe:ns:meta/" x:xmptk="Adobe XMP Core 5.6-c138 79.159824, 2016/09/14-01:09:01        ">
   <rdf:RDF xmlns:rdf="http://www.w3.org/1999/02/22-rdf-syntax-ns#">
      <rdf:Description rdf:about=""/>
   </rdf:RDF>
</x:xmpmeta>
                                                                                                    
                                                                                                    
                                                                                                    
                                                                                                    
                                                                                                    
                                                                                                    
                                                                                                    
                                                                                                    
                                                                                                    
                                                                                                    
                                                                                                    
                                                                                                    
                                                                                                    
                                                                                                    
                                                                                                    
                                                                                                    
                                                                                                    
                                                                                                    
                                                                                                    
                                                                                                    
                           
<?xpacket end="w"?></metadata>
<defs>
    <style>
      .cls-1 {
        fill: #2b2a29;
        fill-rule: evenodd;
      }
    </style>
  </defs>
  <path id="email2" class="cls-1" d="M962,678H943a2.035,2.035,0,0,1-2-2.065V664.064A2.035,2.035,0,0,1,943,662h19a2.035,2.035,0,0,1,2,2.064v11.871A2.035,2.035,0,0,1,962,678Zm1-13.936a1.018,1.018,0,0,0-1-1.032H943a1.018,1.018,0,0,0-1,1.032v11.871a1.019,1.019,0,0,0,1,1.033h19a1.019,1.019,0,0,0,1-1.033V664.064Zm-10.5,8.775a5.034,5.034,0,0,1-3.165-1.415c-0.478-.422-5.61-5.864-6.193-6.483l0.716-.72c2.279,2.418,5.792,6.123,6.127,6.419a3.3,3.3,0,0,0,5.03,0c0.335-.3,3.848-4,6.127-6.423l0.716,0.72c-0.583.619-5.715,6.065-6.193,6.487A5.029,5.029,0,0,1,952.5,672.839Zm-4.647-1.184-4,4.129-0.707-.73,4-4.129Zm14,3.4-0.707.73-4-4.129,0.707-.73Z" transform="translate(-941 -662)"/>
</svg>
