<svg xmlns="http://www.w3.org/2000/svg" width="23.75" height="27.812" viewBox="0 0 23.75 27.812">
  <metadata><?xpacket begin="﻿" id="W5M0MpCehiHzreSzNTczkc9d"?>
<x:xmpmeta xmlns:x="adobe:ns:meta/" x:xmptk="Adobe XMP Core 5.6-c138 79.159824, 2016/09/14-01:09:01        ">
   <rdf:RDF xmlns:rdf="http://www.w3.org/1999/02/22-rdf-syntax-ns#">
      <rdf:Description rdf:about=""/>
   </rdf:RDF>
</x:xmpmeta>
                                                                                                    
                                                                                                    
                                                                                                    
                                                                                                    
                                                                                                    
                                                                                                    
                                                                                                    
                                                                                                    
                                                                                                    
                                                                                                    
                                                                                                    
                                                                                                    
                                                                                                    
                                                                                                    
                                                                                                    
                                                                                                    
                                                                                                    
                                                                                                    
                                                                                                    
                                                                                                    
                           
<?xpacket end="w"?></metadata>
<defs>
    <style>
      .cls-1 {
        fill: #dc3e44;
        fill-rule: evenodd;
      }
    </style>
  </defs>
  <path id="enter" class="cls-1" d="M1532.99,143.756a2.27,2.27,0,0,1-2.27,2.239l-0.04,0-19.15,0a2.27,2.27,0,0,1-2.27-2.239l-0.01-.121v-6.888c-0.02-2.741,4.11-4.272,6.35-4.9a7.374,7.374,0,0,0,1.59,1.312h-0.04c-2.11.452-6.28,1.88-6.26,3.582v6.831c0.1,0.642.22,0.718,0.76,0.775h18.95c0.54-.057.66-0.133,0.76-0.775v-6.825c0.01-1.713-4.09-3.138-6.15-3.589-0.06,0,.99-0.818,1.47-1.34,2.16,0.608,6.34,2.145,6.32,4.935Zm-11.87-11.945a6.817,6.817,0,1,1,6.75-6.816A6.784,6.784,0,0,1,1521.12,131.811Zm0-11.982a5.166,5.166,0,1,0,5.12,5.166A5.142,5.142,0,0,0,1521.12,119.829Z" transform="translate(-1509.25 -118.188)"/>
</svg>
