<svg xmlns="http://www.w3.org/2000/svg" width="25.47" height="22.406" viewBox="0 0 25.47 22.406">
  <metadata><?xpacket begin="﻿" id="W5M0MpCehiHzreSzNTczkc9d"?>
<x:xmpmeta xmlns:x="adobe:ns:meta/" x:xmptk="Adobe XMP Core 5.6-c138 79.159824, 2016/09/14-01:09:01        ">
   <rdf:RDF xmlns:rdf="http://www.w3.org/1999/02/22-rdf-syntax-ns#">
      <rdf:Description rdf:about=""/>
   </rdf:RDF>
</x:xmpmeta>
                                                                                                    
                                                                                                    
                                                                                                    
                                                                                                    
                                                                                                    
                                                                                                    
                                                                                                    
                                                                                                    
                                                                                                    
                                                                                                    
                                                                                                    
                                                                                                    
                                                                                                    
                                                                                                    
                                                                                                    
                                                                                                    
                                                                                                    
                                                                                                    
                                                                                                    
                                                                                                    
                           
<?xpacket end="w"?></metadata>
<defs>
    <style>
      .cls-1 {
        fill: #2b2a29;
        fill-rule: evenodd;
      }
    </style>
  </defs>
  <path id="Favorite" class="cls-1" d="M1386.64,143.612a0.8,0.8,0,0,1-.56-0.232l-10.17-10.291a7.009,7.009,0,0,1,0-9.826,6.809,6.809,0,0,1,9.71,0l1.02,1.024,1.01-1.024a6.817,6.817,0,0,1,9.71,0,7.009,7.009,0,0,1,0,9.826l-10.17,10.291A0.791,0.791,0,0,1,1386.64,143.612Zm-5.87-20.8a5.23,5.23,0,0,0-3.75,1.571,5.412,5.412,0,0,0,0,7.588l9.62,9.731,9.61-9.731a5.406,5.406,0,0,0,.01-7.588,5.28,5.28,0,0,0-7.51,0l-1.56,1.584a0.782,0.782,0,0,1-1.11,0l-1.56-1.584h0A5.264,5.264,0,0,0,1380.77,122.811Z" transform="translate(-1373.91 -121.219)"/>
</svg>
