<?xml version="1.0" encoding="iso-8859-1"?>
<!-- Generator: Adobe Illustrator 19.0.0, SVG Export Plug-In . SVG Version: 6.00 Build 0)  -->
<svg version="1.1" id="Capa_1" xmlns="http://www.w3.org/2000/svg" xmlns:xlink="http://www.w3.org/1999/xlink" x="0px" y="0px"
	 viewBox="0 0 485.656 485.656" style="enable-background:new 0 0 485.656 485.656;" xml:space="preserve">
<g>
	<g>
		<path d="M469.168,270.344c-6.848-6.848-15.968-10.624-25.656-10.624c-8.968,0-17.36,3.352-24.008,9.272
			c-13.696-12.168-34.304-12.168-47.992,0c-13.696-12.168-34.304-12.168-48,0c-14.232-12.648-36.024-12.288-49.656,1.352
			l-52.52,52.52c-7.08-11.28-19.544-18.864-33.824-18.864h-96c-2.12,0-4.16,0.84-5.656,2.344l-80,80l11.312,11.312L94.824,320
			h92.688c13.232,0,24,10.768,24,24s-10.768,24-24,24h-56v16h56c19.312,0,35.472-13.768,39.192-32h128.808
			c2.12,0,4.16-0.84,5.656-2.344l68-68c7.904-7.904,20.784-7.904,28.688,0c7.912,7.904,7.912,20.784,0,28.688L368.2,400H195.512
			c-2.12,0-4.16,0.84-5.656,2.344l-72,72l11.312,11.312L198.824,416h172.688c2.12,0,4.16-0.84,5.656-2.344l92-92
			c6.856-6.848,10.632-15.968,10.632-25.656C479.8,286.312,476.024,277.192,469.168,270.344z M230.824,336l54.344-54.344
			c7.104-7.096,19.032-7.528,26.856-1.48L256.2,336H230.824z M278.824,336l54.344-54.344c7.336-7.336,18.912-7.776,26.864-1.488
			L304.2,336H278.824z M352.2,336h-25.376l54.344-54.344c7.336-7.336,18.912-7.776,26.864-1.488L352.2,336z"/>
	</g>
</g>
<g>
	<g>
		<path d="M419.512,32h-88V8c0-4.424-3.584-8-8-8h-144c-4.416,0-8,3.576-8,8v24h-88c-4.416,0-8,3.576-8,8v184c0,4.424,3.584,8,8,8
			h144c4.416,0,8-3.576,8-8v-24h32v24c0,4.424,3.584,8,8,8h144c4.416,0,8-3.576,8-8V40C427.512,35.576,423.928,32,419.512,32z
			 M219.512,216h-128V48h80v20.448c-4.728-2.752-10.144-4.448-16-4.448c-17.648,0-32,14.352-32,32s14.352,32,32,32
			c5.856,0,11.272-1.696,16-4.448V144h-56v16h56v16h-56v16h56c0,4.424,3.584,8,8,8h40V216z M171.512,96c0,8.824-7.176,16-16,16
			c-8.824,0-16-7.176-16-16s7.176-16,16-16C164.336,80,171.512,87.176,171.512,96z M227.512,184h-40V40V16h128v24v144h-40H227.512z
			 M411.512,216h-128v-16h40c4.416,0,8-3.576,8-8h56v-16h-56v-16h56v-16h-56v-20.448c4.728,2.752,10.144,4.448,16,4.448
			c17.648,0,32-14.352,32-32s-14.352-32-32-32c-5.856,0-11.272,1.696-16,4.448V48h80V216z M331.512,96c0-8.824,7.176-16,16-16
			c8.824,0,16,7.176,16,16s-7.176,16-16,16C338.688,112,331.512,104.824,331.512,96z"/>
	</g>
</g>
<g>
	<g>
		<path d="M251.512,32c-17.648,0-32,14.352-32,32s14.352,32,32,32s32-14.352,32-32S269.16,32,251.512,32z M251.512,80
			c-8.824,0-16-7.176-16-16s7.176-16,16-16c8.824,0,16,7.176,16,16S260.336,80,251.512,80z"/>
	</g>
</g>
<g>
	<g>
		<rect x="211.512" y="112" width="80" height="16"/>
	</g>
</g>
<g>
	<g>
		<rect x="211.512" y="144" width="80" height="16"/>
	</g>
</g>
<g>
</g>
<g>
</g>
<g>
</g>
<g>
</g>
<g>
</g>
<g>
</g>
<g>
</g>
<g>
</g>
<g>
</g>
<g>
</g>
<g>
</g>
<g>
</g>
<g>
</g>
<g>
</g>
<g>
</g>
</svg>
