<svg xmlns="http://www.w3.org/2000/svg" width="33.844" height="16.375" viewBox="0 0 33.844 16.375">
  <metadata><?xpacket begin="﻿" id="W5M0MpCehiHzreSzNTczkc9d"?>
<x:xmpmeta xmlns:x="adobe:ns:meta/" x:xmptk="Adobe XMP Core 5.6-c138 79.159824, 2016/09/14-01:09:01        ">
   <rdf:RDF xmlns:rdf="http://www.w3.org/1999/02/22-rdf-syntax-ns#">
      <rdf:Description rdf:about=""/>
   </rdf:RDF>
</x:xmpmeta>
                                                                                                    
                                                                                                    
                                                                                                    
                                                                                                    
                                                                                                    
                                                                                                    
                                                                                                    
                                                                                                    
                                                                                                    
                                                                                                    
                                                                                                    
                                                                                                    
                                                                                                    
                                                                                                    
                                                                                                    
                                                                                                    
                                                                                                    
                                                                                                    
                                                                                                    
                                                                                                    
                           
<?xpacket end="w"?></metadata>
<defs>
    <style>
      .cls-1 {
        fill: #0b1538;
        fill-rule: evenodd;
      }
    </style>
  </defs>
  <path id="footwear" class="cls-1" d="M626.2,457.433l-17.113-4.765a0.91,0.91,0,0,0-1.1.555c-0.349.939-1.564,3.547-2.977,4.319a13.656,13.656,0,0,1-4.966,1.088,0.9,0.9,0,0,0-.881.9V468.1a0.9,0.9,0,0,0,.906.9h26c3.089,0,6.935,0,6.935-4.159C633,459.624,631.03,457.471,626.2,457.433Zm4.967,6.5h-5.625a12.829,12.829,0,0,1,1.067-4.693C629.79,459.361,631,460.585,631.169,463.935Zm-25.279-4.818c1.711-.935,2.932-3.261,3.485-4.5l1.987,0.554-0.894,1.339a0.9,0.9,0,0,0,.254,1.246,0.91,0.91,0,0,0,1.256-.253l1.217-1.821,1.473,0.41-0.919,1.376a0.9,0.9,0,0,0,.755,1.4,0.911,0.911,0,0,0,.756-0.4l1.241-1.86,1.429,0.4-0.9,1.346a0.9,0.9,0,0,0,.754,1.4,0.908,0.908,0,0,0,.757-0.4l1.221-1.83,1.466,0.408-0.916,1.372a0.9,0.9,0,0,0,.755,1.4,0.907,0.907,0,0,0,.756-0.4l1.238-1.854,1.719,0.478a15.052,15.052,0,0,0-1.052,5.031H600.981v-3.565A13.608,13.608,0,0,0,605.89,459.117Zm20.18,8.079H600.981v-1.462h30.087C630.672,466.96,629.25,467.2,626.07,467.2Z" transform="translate(-599.156 -452.625)"/>
</svg>
