<svg width="25" height="22" xmlns="http://www.w3.org/2000/svg">

 <metadata/>
 <g>
  <title>Layer 1</title>
  <path fill-rule="evenodd" fill="#ff0000" d="M 12.740149240344863 22.383960356272752 A 0.8 0.8 0 0 1 12.18014924034469 22.151960356272753 L 2.0101492403448447 11.860960356272756 A 7.009 7.009 0 0 1 2.0101492403448447 2.0349603562727623 A 6.809 6.809 0 0 1 11.720149240344654 2.0349603562727623 L 12.740149240344863 3.058960356272763 L 13.750149240344854 2.0349603562727623 A 6.817 6.817 0 0 1 23.460149240344663 2.0349603562727623 A 7.009 7.009 0 0 1 23.460149240344663 11.860960356272756 L 13.290149240344817 22.151960356272753 A 0.7909999999999999 0.7909999999999999 0 0 1 12.740149240344863 22.383960356272752 z M 6.870149240344745 1.5839603562727547 A 5.23 5.23 0 0 0 3.1201492403447446 3.1549603562727526 A 5.412 5.412 0 0 0 3.1201492403447446 10.74296035627276 L 12.740149240344863 20.473960356272755 L 22.350149240344763 10.74296035627276 A 5.406 5.406 0 0 0 22.360149240344754 3.1549603562727526 A 5.28 5.28 0 0 0 14.850149240344763 3.1549603562727526 L 13.290149240344817 4.738960356272756 A 0.7819999999999999 0.7819999999999999 0 0 1 12.18014924034469 4.738960356272756 L 10.620149240344745 3.1549603562727526 L 10.620149240344745 3.1549603562727526 A 5.264 5.264 0 0 0 6.870149240344745 1.582960356272764 L 6.870149240344745 1.5839603562727547 z" id="imagebot_1"/>
 </g>
</svg>