<svg xmlns="http://www.w3.org/2000/svg" width="15" height="21" viewBox="0 0 15 21">
  <metadata><?xpacket begin="﻿" id="W5M0MpCehiHzreSzNTczkc9d"?>
<x:xmpmeta xmlns:x="adobe:ns:meta/" x:xmptk="Adobe XMP Core 5.6-c138 79.159824, 2016/09/14-01:09:01        ">
   <rdf:RDF xmlns:rdf="http://www.w3.org/1999/02/22-rdf-syntax-ns#">
      <rdf:Description rdf:about=""/>
   </rdf:RDF>
</x:xmpmeta>
                                                                                                    
                                                                                                    
                                                                                                    
                                                                                                    
                                                                                                    
                                                                                                    
                                                                                                    
                                                                                                    
                                                                                                    
                                                                                                    
                                                                                                    
                                                                                                    
                                                                                                    
                                                                                                    
                                                                                                    
                                                                                                    
                                                                                                    
                                                                                                    
                                                                                                    
                                                                                                    
                           
<?xpacket end="w"?></metadata>
<defs>
    <style>
      .cls-1 {
        fill: #2b2a29;
        fill-rule: evenodd;
      }
    </style>
  </defs>
  <path id="Inn" class="cls-1" d="M955.668,492H943.33A1.34,1.34,0,0,1,942,490.653V474.591a1.343,1.343,0,0,1,.39-0.95l2.228-2.245a1.32,1.32,0,0,1,.943-0.394h9.862A1.591,1.591,0,0,1,957,472.6v18.055A1.34,1.34,0,0,1,955.668,492Zm0.369-19.4a0.622,0.622,0,0,0-.618-0.624h-9.862a0.368,0.368,0,0,0-.261.109l-1.654,1.667h1.276v-0.377a0.483,0.483,0,1,1,.965,0v0.5a0.848,0.848,0,0,1-.844.85h-2.078v15.932a0.371,0.371,0,0,0,.369.372h12.338a0.371,0.371,0,0,0,.369-0.372V472.6Zm-1.943,14.476h-3.408a0.487,0.487,0,0,1,0-.973h3.408A0.487,0.487,0,0,1,954.094,487.074Zm-3.408-4.411h2.382a0.486,0.486,0,0,1,0,.972h-2.382A0.486,0.486,0,0,1,950.686,482.663Zm3.408-.457h-3.408a0.486,0.486,0,0,1,0-.972h3.408A0.486,0.486,0,0,1,954.094,482.206Zm-3.408-4.611h2.382a0.486,0.486,0,0,1,0,.972h-2.382A0.486,0.486,0,0,1,950.686,477.6Zm3.408-.457h-3.408a0.486,0.486,0,0,1,0-.972h3.408A0.486,0.486,0,0,1,954.094,477.138Zm-7.075,11.255a0.82,0.82,0,0,1-.6.268h0a0.823,0.823,0,0,1-.6-0.269l-1.148-1.254a0.489,0.489,0,0,1,.028-0.687,0.478,0.478,0,0,1,.681.028l1.041,1.137,1.685-1.837a0.481,0.481,0,0,1,.682-0.028,0.49,0.49,0,0,1,.027.688Zm0-4.868a0.82,0.82,0,0,1-.6.268h0a0.823,0.823,0,0,1-.6-0.269l-1.148-1.254a0.489,0.489,0,0,1,.028-0.687,0.478,0.478,0,0,1,.681.028l1.041,1.137,1.685-1.837a0.481,0.481,0,0,1,.682-0.028,0.488,0.488,0,0,1,.027.687Zm0-5.13a0.82,0.82,0,0,1-.6.268h0a0.819,0.819,0,0,1-.6-0.269l-1.148-1.254a0.489,0.489,0,0,1,.028-0.687,0.479,0.479,0,0,1,.681.028l1.041,1.138,1.685-1.838a0.481,0.481,0,0,1,.682-0.027,0.487,0.487,0,0,1,.027.686Zm3.667,9.135h2.382a0.486,0.486,0,0,1,0,.972h-2.382A0.486,0.486,0,0,1,950.686,487.53Z" transform="translate(-942 -471)"/>
</svg>
