<svg xmlns="http://www.w3.org/2000/svg" width="25.719" height="25" viewBox="0 0 25.719 25">
  <metadata><?xpacket begin="﻿" id="W5M0MpCehiHzreSzNTczkc9d"?>
<x:xmpmeta xmlns:x="adobe:ns:meta/" x:xmptk="Adobe XMP Core 5.6-c138 79.159824, 2016/09/14-01:09:01        ">
   <rdf:RDF xmlns:rdf="http://www.w3.org/1999/02/22-rdf-syntax-ns#">
      <rdf:Description rdf:about=""/>
   </rdf:RDF>
</x:xmpmeta>
                                                                                                    
                                                                                                    
                                                                                                    
                                                                                                    
                                                                                                    
                                                                                                    
                                                                                                    
                                                                                                    
                                                                                                    
                                                                                                    
                                                                                                    
                                                                                                    
                                                                                                    
                                                                                                    
                                                                                                    
                                                                                                    
                                                                                                    
                                                                                                    
                                                                                                    
                                                                                                    
                           
<?xpacket end="w"?></metadata>
<defs>
    <style>
      .cls-1 {
        fill: #2b2a29;
        fill-rule: evenodd;
      }
    </style>
  </defs>
  <path id="instagram" class="cls-1" d="M411.854,2714.85a6.651,6.651,0,1,0,6.737,6.65A6.7,6.7,0,0,0,411.854,2714.85Zm0,11.14a4.49,4.49,0,1,1,4.543-4.49A4.517,4.517,0,0,1,411.854,2725.99Zm6.5-12.66a1.475,1.475,0,1,0,1.5,1.47A1.483,1.483,0,0,0,418.359,2713.33Zm0,0a1.475,1.475,0,1,0,1.5,1.47A1.483,1.483,0,0,0,418.359,2713.33Zm-6.5,1.52a6.651,6.651,0,1,0,6.737,6.65A6.7,6.7,0,0,0,411.854,2714.85Zm0,11.14a4.49,4.49,0,1,1,4.543-4.49A4.517,4.517,0,0,1,411.854,2725.99Zm6.219-16.99H405.634a6.613,6.613,0,0,0-6.634,6.55v11.9a6.613,6.613,0,0,0,6.634,6.55h12.439a6.613,6.613,0,0,0,6.634-6.55v-11.9A6.613,6.613,0,0,0,418.073,2709Zm4.422,17.18a5.665,5.665,0,0,1-5.493,5.64H406.7a5.665,5.665,0,0,1-5.493-5.64v-9.57a5.483,5.483,0,0,1,5.493-5.43H417a5.483,5.483,0,0,1,5.493,5.43v9.57Zm-4.136-12.85a1.475,1.475,0,1,0,1.5,1.47A1.483,1.483,0,0,0,418.359,2713.33Zm-6.5,1.52a6.651,6.651,0,1,0,6.737,6.65A6.7,6.7,0,0,0,411.854,2714.85Zm0,11.14a4.49,4.49,0,1,1,4.543-4.49A4.517,4.517,0,0,1,411.854,2725.99Zm6.5-12.66a1.475,1.475,0,1,0,1.5,1.47A1.483,1.483,0,0,0,418.359,2713.33Zm-6.5,1.52a6.651,6.651,0,1,0,6.737,6.65A6.7,6.7,0,0,0,411.854,2714.85Zm0,11.14a4.49,4.49,0,1,1,4.543-4.49A4.517,4.517,0,0,1,411.854,2725.99Zm0-11.14a6.651,6.651,0,1,0,6.737,6.65A6.7,6.7,0,0,0,411.854,2714.85Zm0,11.14a4.49,4.49,0,1,1,4.543-4.49A4.517,4.517,0,0,1,411.854,2725.99Zm6.5-12.66a1.475,1.475,0,1,0,1.5,1.47A1.483,1.483,0,0,0,418.359,2713.33Z" transform="translate(-399 -2709)"/>
</svg>
