<svg xmlns="http://www.w3.org/2000/svg" width="20.343" height="27.125" viewBox="0 0 20.343 27.125">
  <metadata><?xpacket begin="﻿" id="W5M0MpCehiHzreSzNTczkc9d"?>
<x:xmpmeta xmlns:x="adobe:ns:meta/" x:xmptk="Adobe XMP Core 5.6-c138 79.159824, 2016/09/14-01:09:01        ">
   <rdf:RDF xmlns:rdf="http://www.w3.org/1999/02/22-rdf-syntax-ns#">
      <rdf:Description rdf:about=""/>
   </rdf:RDF>
</x:xmpmeta>
                                                                                                    
                                                                                                    
                                                                                                    
                                                                                                    
                                                                                                    
                                                                                                    
                                                                                                    
                                                                                                    
                                                                                                    
                                                                                                    
                                                                                                    
                                                                                                    
                                                                                                    
                                                                                                    
                                                                                                    
                                                                                                    
                                                                                                    
                                                                                                    
                                                                                                    
                                                                                                    
                           
<?xpacket end="w"?></metadata>
<defs>
    <style>
      .cls-1 {
        fill: #2b2a29;
        fill-rule: evenodd;
      }
    </style>
  </defs>
  <path id="Location2" class="cls-1" d="M357.8,354.383a20.726,20.726,0,0,1-1.888,3.492l-0.018.026-6.3,8.646a1.335,1.335,0,0,1-2.252-.007l-6.309-8.664a20.672,20.672,0,0,1-1.889-3.493,10.538,10.538,0,0,1-.842-4.01,10.343,10.343,0,0,1,2.978-7.3,10.057,10.057,0,0,1,14.38,0,10.343,10.343,0,0,1,2.978,7.3A10.538,10.538,0,0,1,357.8,354.383Zm-9.326-13.089a8.809,8.809,0,0,0-6.32,2.659,9.094,9.094,0,0,0-2.618,6.42,9.3,9.3,0,0,0,.75,3.534,19.414,19.414,0,0,0,1.77,3.269l6.293,8.64c0.009,0.012.018,0.026,0.027,0.04a0.116,0.116,0,0,0,.2,0l0.026-.039,6.3-8.648a19.387,19.387,0,0,0,1.766-3.262,9.308,9.308,0,0,0,.75-3.534,9.094,9.094,0,0,0-2.618-6.42A8.809,8.809,0,0,0,348.478,341.294Zm0,14.414a5.333,5.333,0,1,1,5.249-5.332A5.3,5.3,0,0,1,348.478,355.708Zm0-9.414a4.083,4.083,0,1,0,4.018,4.082A4.055,4.055,0,0,0,348.478,346.294Z" transform="translate(-338.313 -340.031)"/>
</svg>
