<svg xmlns="http://www.w3.org/2000/svg" width="17.31" height="25" viewBox="0 0 17.31 25">
  <metadata><?xpacket begin="﻿" id="W5M0MpCehiHzreSzNTczkc9d"?>
<x:xmpmeta xmlns:x="adobe:ns:meta/" x:xmptk="Adobe XMP Core 5.6-c138 79.159824, 2016/09/14-01:09:01        ">
   <rdf:RDF xmlns:rdf="http://www.w3.org/1999/02/22-rdf-syntax-ns#">
      <rdf:Description rdf:about=""/>
   </rdf:RDF>
</x:xmpmeta>
                                                                                                    
                                                                                                    
                                                                                                    
                                                                                                    
                                                                                                    
                                                                                                    
                                                                                                    
                                                                                                    
                                                                                                    
                                                                                                    
                                                                                                    
                                                                                                    
                                                                                                    
                                                                                                    
                                                                                                    
                                                                                                    
                                                                                                    
                                                                                                    
                                                                                                    
                                                                                                    
                           
<?xpacket end="w"?></metadata>
<defs>
    <style>
      .cls-1 {
        fill: #fff;
        fill-rule: evenodd;
      }
    </style>
  </defs>
  <path id="Location" class="cls-1" d="M1002.29,59.06l-6.129,8.525a0.6,0.6,0,0,1-.483.247h0a0.6,0.6,0,0,1-.483-0.245l-1.557-2.148a0.543,0.543,0,0,1,.052.11,0.587,0.587,0,0,1-.435.71c-1.439.348-1.975,0.887-1.975,1.145,0,0.483,1.577,1.421,4.467,1.421s4.464-.938,4.464-1.421a1.46,1.46,0,0,0-1.037-.847,0.585,0.585,0,0,1-.318-0.768,0.6,0.6,0,0,1,.777-0.315c1.538,0.638,1.768,1.483,1.768,1.93,0,1.7-2.844,2.6-5.654,2.6s-5.655-.892-5.655-2.6c0-1.009,1.05-1.842,2.88-2.285a0.588,0.588,0,0,1,.546.155L988.824,58.8c-0.134-.17-0.259-0.344-0.379-0.522l0-.008a0,0,0,0,1,0,0A8.482,8.482,0,0,1,987,53.559a8.661,8.661,0,0,1,17.32,0A8.488,8.488,0,0,1,1002.29,59.06Zm-6.632-12.887a7.437,7.437,0,0,0-7.47,7.386,7.334,7.334,0,0,0,1.833,4.846,0.59,0.59,0,0,1,.087.151l5.567,7.677,6.275-8.725v0a7.358,7.358,0,0,0,1.18-3.948A7.438,7.438,0,0,0,995.658,46.173ZM995.72,58.05a4.635,4.635,0,1,1,4.69-4.635A4.667,4.667,0,0,1,995.72,58.05Zm0-8.1a3.461,3.461,0,1,0,3.5,3.461A3.484,3.484,0,0,0,995.72,49.955Z" transform="translate(-987 -45)"/>
</svg>
