<svg xmlns="http://www.w3.org/2000/svg" width="25" height="20" viewBox="0 0 25 20">
  <metadata><?xpacket begin="﻿" id="W5M0MpCehiHzreSzNTczkc9d"?>
<x:xmpmeta xmlns:x="adobe:ns:meta/" x:xmptk="Adobe XMP Core 5.6-c138 79.159824, 2016/09/14-01:09:01        ">
   <rdf:RDF xmlns:rdf="http://www.w3.org/1999/02/22-rdf-syntax-ns#">
      <rdf:Description rdf:about=""/>
   </rdf:RDF>
</x:xmpmeta>
                                                                                                    
                                                                                                    
                                                                                                    
                                                                                                    
                                                                                                    
                                                                                                    
                                                                                                    
                                                                                                    
                                                                                                    
                                                                                                    
                                                                                                    
                                                                                                    
                                                                                                    
                                                                                                    
                                                                                                    
                                                                                                    
                                                                                                    
                                                                                                    
                                                                                                    
                                                                                                    
                           
<?xpacket end="w"?></metadata>
<defs>
    <style>
      .cls-1 {
        fill: #2b2a29;
        fill-rule: evenodd;
      }
    </style>
  </defs>
  <path id="Organization" class="cls-1" d="M620.047,492h-21.1A1.954,1.954,0,0,1,597,490.045V479.427a4.059,4.059,0,0,1,4.048-4.06h4.35V474.05A2.051,2.051,0,0,1,607.442,472h4.529a2.051,2.051,0,0,1,2.046,2.052v1.317h3.93a4.059,4.059,0,0,1,4.048,4.06v10.618A1.954,1.954,0,0,1,620.047,492Zm-7.093-17.95a0.985,0.985,0,0,0-.983-0.986h-4.529a0.985,0.985,0,0,0-.983.986v1.317h6.5V474.05Zm7.978,6.73v-1.353a2.993,2.993,0,0,0-2.985-2.994h-16.9a2.993,2.993,0,0,0-2.985,2.994v2.9a1.466,1.466,0,0,0,1.463,1.467h8.182v-0.636a1.047,1.047,0,0,1,1.044-1.048h1.493a1.048,1.048,0,0,1,1.045,1.048v0.636h8.181a1.466,1.466,0,0,0,1.463-1.467V480.78Zm-12.174,3.594,0.011,1.54,1.456-.018v-2.742l-1.475.018,0.008,1.1a0.517,0.517,0,0,1,.011.054A0.464,0.464,0,0,1,608.758,484.374Zm12.174,0.011a2.508,2.508,0,0,1-1.463.471h-8.181v1.058a1.048,1.048,0,0,1-1.045,1.048H608.75a1.047,1.047,0,0,1-1.044-1.048v-1.058h-8.182a2.5,2.5,0,0,1-1.463-.472v5.661a0.888,0.888,0,0,0,.886.889h21.1a0.888,0.888,0,0,0,.885-0.889v-5.66Z" transform="translate(-597 -472)"/>
</svg>
