<svg xmlns="http://www.w3.org/2000/svg" width="14.16" height="25" viewBox="0 0 14.16 25">
  <metadata><?xpacket begin="﻿" id="W5M0MpCehiHzreSzNTczkc9d"?>
<x:xmpmeta xmlns:x="adobe:ns:meta/" x:xmptk="Adobe XMP Core 5.6-c138 79.159824, 2016/09/14-01:09:01        ">
   <rdf:RDF xmlns:rdf="http://www.w3.org/1999/02/22-rdf-syntax-ns#">
      <rdf:Description rdf:about=""/>
   </rdf:RDF>
</x:xmpmeta>
                                                                                                    
                                                                                                    
                                                                                                    
                                                                                                    
                                                                                                    
                                                                                                    
                                                                                                    
                                                                                                    
                                                                                                    
                                                                                                    
                                                                                                    
                                                                                                    
                                                                                                    
                                                                                                    
                                                                                                    
                                                                                                    
                                                                                                    
                                                                                                    
                                                                                                    
                                                                                                    
                           
<?xpacket end="w"?></metadata>
<defs>
    <style>
      .cls-1 {
        fill: #fff;
        fill-rule: evenodd;
      }
    </style>
  </defs>
  <path id="Phone-header" class="cls-1" d="M1203.64,70h-9.45a2.356,2.356,0,0,1-2.36-2.344V47.343A2.355,2.355,0,0,1,1194.19,45h9.45a2.355,2.355,0,0,1,2.36,2.344V67.656A2.356,2.356,0,0,1,1203.64,70Zm-9.45-1.563h9.45a0.79,0.79,0,0,0,.79-0.781V66.093h-11.02v1.562A0.782,0.782,0,0,0,1194.19,68.437Zm10.24-21.094a0.79,0.79,0,0,0-.79-0.781h-9.45a0.782,0.782,0,0,0-.78.781v1.563h11.02V47.343Zm-11.02,3.125V64.531h11.02V50.468h-11.02Z" transform="translate(-1191.84 -45)"/>
</svg>
