<svg xmlns="http://www.w3.org/2000/svg" width="14" height="25" viewBox="0 0 14 25">
  <metadata><?xpacket begin="﻿" id="W5M0MpCehiHzreSzNTczkc9d"?>
<x:xmpmeta xmlns:x="adobe:ns:meta/" x:xmptk="Adobe XMP Core 5.6-c138 79.159824, 2016/09/14-01:09:01        ">
   <rdf:RDF xmlns:rdf="http://www.w3.org/1999/02/22-rdf-syntax-ns#">
      <rdf:Description rdf:about=""/>
   </rdf:RDF>
</x:xmpmeta>
                                                                                                    
                                                                                                    
                                                                                                    
                                                                                                    
                                                                                                    
                                                                                                    
                                                                                                    
                                                                                                    
                                                                                                    
                                                                                                    
                                                                                                    
                                                                                                    
                                                                                                    
                                                                                                    
                                                                                                    
                                                                                                    
                                                                                                    
                                                                                                    
                                                                                                    
                                                                                                    
                           
<?xpacket end="w"?></metadata>
<defs>
    <style>
      .cls-1 {
        fill: #2b2a29;
        fill-rule: evenodd;
      }
    </style>
  </defs>
  <path id="Phone_input_" data-name="Phone(input)" class="cls-1" d="M847.384,496H836.615A1.663,1.663,0,0,1,835,494.3V472.7a1.663,1.663,0,0,1,1.615-1.7h10.769A1.663,1.663,0,0,1,849,472.7V494.3A1.664,1.664,0,0,1,847.384,496Zm-11.307-1.7a0.554,0.554,0,0,0,.538.569h10.769a0.555,0.555,0,0,0,.539-0.569v-2.841H836.077V494.3Zm11.846-3.977V475.545H836.077v14.773h11.846Zm-0.539-18.182H836.615a0.554,0.554,0,0,0-.538.568v1.7h11.846v-1.7A0.554,0.554,0,0,0,847.384,472.136Zm-6.461,20.455h2.154v1.136h-2.154v-1.136Z" transform="translate(-835 -471)"/>
</svg>
