<svg xmlns="http://www.w3.org/2000/svg" width="35" height="27" viewBox="0 0 35 27">
  <metadata><?xpacket begin="﻿" id="W5M0MpCehiHzreSzNTczkc9d"?>
<x:xmpmeta xmlns:x="adobe:ns:meta/" x:xmptk="Adobe XMP Core 5.6-c138 79.159824, 2016/09/14-01:09:01        ">
   <rdf:RDF xmlns:rdf="http://www.w3.org/1999/02/22-rdf-syntax-ns#">
      <rdf:Description rdf:about=""/>
   </rdf:RDF>
</x:xmpmeta>
                                                                                                    
                                                                                                    
                                                                                                    
                                                                                                    
                                                                                                    
                                                                                                    
                                                                                                    
                                                                                                    
                                                                                                    
                                                                                                    
                                                                                                    
                                                                                                    
                                                                                                    
                                                                                                    
                                                                                                    
                                                                                                    
                                                                                                    
                                                                                                    
                                                                                                    
                                                                                                    
                           
<?xpacket end="w"?></metadata>
<defs>
    <style>
      .cls-1 {
        fill: #c5c5c5;
        fill-rule: evenodd;
      }
    </style>
  </defs>
  <path id="Photo-icon" class="cls-1" d="M1110.96,1567.99h-30.92a2.029,2.029,0,0,1-2.04-2.01v-18.76a2.032,2.032,0,0,1,2.04-2.02h7.12c0-.06-0.01-0.11-0.01-0.17v-2.02a2.023,2.023,0,0,1,2.04-2.01h12.62a2.029,2.029,0,0,1,2.04,2.01v2.02c0,0.06-.01.11-0.01,0.17h7.12a2.023,2.023,0,0,1,2.03,2.02v18.76A2.021,2.021,0,0,1,1110.96,1567.99Zm-15.46-20.14a8.745,8.745,0,1,0,8.83,8.75A8.79,8.79,0,0,0,1095.5,1547.85Zm0,14.43a5.68,5.68,0,1,1,5.74-5.68A5.715,5.715,0,0,1,1095.5,1562.28Z" transform="translate(-1078 -1541)"/>
</svg>
