<svg xmlns="http://www.w3.org/2000/svg" width="15" height="13.88" viewBox="0 0 15 13.88">
  <metadata><?xpacket begin="﻿" id="W5M0MpCehiHzreSzNTczkc9d"?>
<x:xmpmeta xmlns:x="adobe:ns:meta/" x:xmptk="Adobe XMP Core 5.6-c138 79.159824, 2016/09/14-01:09:01        ">
   <rdf:RDF xmlns:rdf="http://www.w3.org/1999/02/22-rdf-syntax-ns#">
      <rdf:Description rdf:about=""/>
   </rdf:RDF>
</x:xmpmeta>
                                                                                                    
                                                                                                    
                                                                                                    
                                                                                                    
                                                                                                    
                                                                                                    
                                                                                                    
                                                                                                    
                                                                                                    
                                                                                                    
                                                                                                    
                                                                                                    
                                                                                                    
                                                                                                    
                                                                                                    
                                                                                                    
                                                                                                    
                                                                                                    
                                                                                                    
                                                                                                    
                           
<?xpacket end="w"?></metadata>
<defs>
    <style>
      .cls-1 {
        fill: #cdcdcd;
        fill-rule: evenodd;
      }
    </style>
  </defs>
  <path id="Pop-goods" class="cls-1" d="M429.663,1161.68l-6.188,6.19-6.189-6.19a4.493,4.493,0,0,1,6.189-6.51A4.492,4.492,0,0,1,429.663,1161.68Zm-1.389-4.95a2.439,2.439,0,0,0-1.747-.72,2.508,2.508,0,0,0-1.686.65l-1.341,1.33-1.341-1.33a2.508,2.508,0,0,0-1.686-.65,2.442,2.442,0,0,0-1.748.72,2.5,2.5,0,0,0-.006,3.53l4.781,4.73,4.774-4.72A2.506,2.506,0,0,0,428.274,1156.73Z" transform="translate(-415.969 -1154)"/>
</svg>
