<svg xmlns="http://www.w3.org/2000/svg" width="35" height="27" viewBox="0 0 35 27">
  <metadata><?xpacket begin="﻿" id="W5M0MpCehiHzreSzNTczkc9d"?>
<x:xmpmeta xmlns:x="adobe:ns:meta/" x:xmptk="Adobe XMP Core 5.6-c138 79.159824, 2016/09/14-01:09:01        ">
   <rdf:RDF xmlns:rdf="http://www.w3.org/1999/02/22-rdf-syntax-ns#">
      <rdf:Description rdf:about=""/>
   </rdf:RDF>
</x:xmpmeta>
                                                                                                    
                                                                                                    
                                                                                                    
                                                                                                    
                                                                                                    
                                                                                                    
                                                                                                    
                                                                                                    
                                                                                                    
                                                                                                    
                                                                                                    
                                                                                                    
                                                                                                    
                                                                                                    
                                                                                                    
                                                                                                    
                                                                                                    
                                                                                                    
                                                                                                    
                                                                                                    
                           
<?xpacket end="w"?></metadata>
<defs>
    <style>
      .cls-1 {
        fill: #2b2a29;
        fill-rule: evenodd;
      }
    </style>
  </defs>
  <path id="Price_m" class="cls-1" d="M1319.98,1660.3c-2.91,0-5.27-1.18-5.86-2.79l-12.78,8.42a0.476,0.476,0,0,1-.23.07,0.513,0.513,0,0,1-.24-0.07l-9.67-6.38a0.436,0.436,0,0,1-.13-0.6,0.426,0.426,0,0,1,.59-0.13l9.45,6.23,12.86-8.48v-1l-12.63,8.32a0.389,0.389,0,0,1-.23.07,0.42,0.42,0,0,1-.24-0.07l-9.67-6.37a0.436,0.436,0,0,1-.13-0.6,0.426,0.426,0,0,1,.59-0.13l9.45,6.22,12.86-8.47v-1l-12.63,8.32a0.389,0.389,0,0,1-.23.07,0.42,0.42,0,0,1-.24-0.07l-9.67-6.38a0.436,0.436,0,0,1-.13-0.6,0.423,0.423,0,0,1,.59-0.12l9.45,6.22,12.86-8.48v-1l-12.63,8.33a0.476,0.476,0,0,1-.23.07,0.513,0.513,0,0,1-.24-0.07l-9.67-6.38a0.436,0.436,0,0,1-.13-0.6,0.426,0.426,0,0,1,.59-0.13l9.45,6.23,12.86-8.48v-1l-12.63,8.32a0.389,0.389,0,0,1-.23.07,0.42,0.42,0,0,1-.24-0.07l-9.67-6.37a0.451,0.451,0,0,1-.2-0.37,0.433,0.433,0,0,1,.2-0.36l2.59-1.71h0l14.64-9.65a0.426,0.426,0,0,1,.46,0l5.08,3.35v-0.22a0.423,0.423,0,0,1,.05-0.2c0.27-1.85,2.78-3.27,5.96-3.27s5.69,1.42,5.97,3.27a0.423,0.423,0,0,1,.05.2v14.25C1326,1658.72,1323.36,1660.3,1319.98,1660.3Zm-18.87-3.39,1.74-1.15a4.963,4.963,0,0,0-3.48,0Zm-7.1-7.04-1.79,1.18,1.79,1.18a1.568,1.568,0,0,0,.67-1.18A1.6,1.6,0,0,0,1294.01,1649.87Zm14.65-9.65-1.74,1.14a4.855,4.855,0,0,0,3.48,0Zm5.31,7.66v-4.17l-2.74-1.8a5.425,5.425,0,0,1-5.15,0l-11.33,7.47a2.188,2.188,0,0,1,0,3.35l3.78,2.49a5.519,5.519,0,0,1,5.15,0l10.29-6.78v-0.56Zm6.01,11.55c2.74,0,5.05-1.19,5.15-2.62a8.555,8.555,0,0,1-10.29,0c0,0.01.01,0.02,0.01,0.03C1314.98,1658.26,1317.27,1659.43,1319.98,1659.43Zm0-9.73a7.438,7.438,0,0,1-5.14-1.72c0.1,1.43,2.41,2.62,5.14,2.62s5.05-1.19,5.15-2.62A7.465,7.465,0,0,1,1319.98,1649.7Zm5.15-3.49a8.516,8.516,0,0,1-10.29,0c0.1,1.43,2.41,2.63,5.14,2.63S1325.03,1647.64,1325.13,1646.21Zm-5.15.86c2.74,0,5.05-1.19,5.15-2.63a8.516,8.516,0,0,1-10.29,0C1314.94,1645.88,1317.25,1647.07,1319.98,1647.07Zm0,4.4a7.392,7.392,0,0,1-5.14-1.73c0.1,1.43,2.41,2.63,5.14,2.63s5.05-1.2,5.15-2.63A7.419,7.419,0,0,1,1319.98,1651.47Zm0,3.53a7.438,7.438,0,0,1-5.14-1.72c0.1,1.43,2.41,2.62,5.14,2.62s5.05-1.19,5.15-2.62A7.465,7.465,0,0,1,1319.98,1655Zm5.15-3.49a8.555,8.555,0,0,1-10.29,0c0.1,1.43,2.41,2.62,5.14,2.62S1325.03,1652.94,1325.13,1651.51Zm-5.15,5.26a7.392,7.392,0,0,1-5.14-1.73c0.1,1.43,2.41,2.63,5.14,2.63s5.05-1.2,5.15-2.63A7.419,7.419,0,0,1,1319.98,1656.77Zm0-16.91c-2.8,0-5.16,1.25-5.16,2.72s2.36,2.72,5.16,2.72,5.17-1.24,5.17-2.72S1322.78,1639.86,1319.98,1639.86Z" transform="translate(-1291 -1639)"/>
</svg>
