<svg xmlns="http://www.w3.org/2000/svg" width="14.719" height="15" viewBox="0 0 14.719 15">
  <metadata><?xpacket begin="﻿" id="W5M0MpCehiHzreSzNTczkc9d"?>
<x:xmpmeta xmlns:x="adobe:ns:meta/" x:xmptk="Adobe XMP Core 5.6-c138 79.159824, 2016/09/14-01:09:01        ">
   <rdf:RDF xmlns:rdf="http://www.w3.org/1999/02/22-rdf-syntax-ns#">
      <rdf:Description rdf:about=""/>
   </rdf:RDF>
</x:xmpmeta>
                                                                                                    
                                                                                                    
                                                                                                    
                                                                                                    
                                                                                                    
                                                                                                    
                                                                                                    
                                                                                                    
                                                                                                    
                                                                                                    
                                                                                                    
                                                                                                    
                                                                                                    
                                                                                                    
                                                                                                    
                                                                                                    
                                                                                                    
                                                                                                    
                                                                                                    
                                                                                                    
                           
<?xpacket end="w"?></metadata>
<defs>
    <style>
      .cls-1 {
        fill: #d5d5d5;
        fill-rule: evenodd;
      }
    </style>
  </defs>
  <path id="rating" class="cls-1" d="M883.627,1394.59l1.087,2.49a1.384,1.384,0,0,0,.992.81l3.091,0.63-2.12,2.15a1.429,1.429,0,0,0-.38,1.27l0.592,3.08-2.7-1.22a1.369,1.369,0,0,0-1.121,0l-2.7,1.22,0.592-3.08a1.431,1.431,0,0,0-.379-1.27l-2.119-2.15,3.09-.63a1.387,1.387,0,0,0,.993-0.81l1.086-2.49m0-2.59a0.59,0.59,0,0,0-.534.35l-1.815,4.16-4.555.93a0.58,0.58,0,0,0-.442.41,0.6,0.6,0,0,0,.147.59l3.171,3.23-0.886,4.61a0.59,0.59,0,0,0,.185.59,0.6,0.6,0,0,0,.369.13,0.483,0.483,0,0,0,.235-0.06l4.125-1.86,4.132,1.87a0.587,0.587,0,0,0,.232.05,0.6,0.6,0,0,0,.362-0.13,0.588,0.588,0,0,0,.189-0.58l-0.889-4.62,3.175-3.23a0.594,0.594,0,0,0,.147-0.59,0.584,0.584,0,0,0-.445-0.41l-4.553-.93-1.816-4.16a0.589,0.589,0,0,0-.534-0.35h0Z" transform="translate(-876.25 -1392)"/>
</svg>
