<svg xmlns="http://www.w3.org/2000/svg" width="32.031" height="32" viewBox="0 0 32.031 32">
  <metadata><?xpacket begin="﻿" id="W5M0MpCehiHzreSzNTczkc9d"?>
<x:xmpmeta xmlns:x="adobe:ns:meta/" x:xmptk="Adobe XMP Core 5.6-c138 79.159824, 2016/09/14-01:09:01        ">
   <rdf:RDF xmlns:rdf="http://www.w3.org/1999/02/22-rdf-syntax-ns#">
      <rdf:Description rdf:about=""/>
   </rdf:RDF>
</x:xmpmeta>
                                                                                                    
                                                                                                    
                                                                                                    
                                                                                                    
                                                                                                    
                                                                                                    
                                                                                                    
                                                                                                    
                                                                                                    
                                                                                                    
                                                                                                    
                                                                                                    
                                                                                                    
                                                                                                    
                                                                                                    
                                                                                                    
                                                                                                    
                                                                                                    
                                                                                                    
                                                                                                    
                           
<?xpacket end="w"?></metadata>
<defs>
    <style>
      .cls-1 {
        fill: #ae3b39;
        fill-rule: evenodd;
      }
    </style>
  </defs>
  <path id="Review-man" class="cls-1" d="M377,1920h-4.361v-4.41l9.879-10,4.361,4.41Zm-2.385-3.59V1918h1.566l7.9-8-1.567-1.59Zm3.951-12.41h-0.207a13.558,13.558,0,0,1-1.875,4.01,4.156,4.156,0,0,0-.881,1.99H373.63a5.7,5.7,0,0,1,1.192-3.06,11.406,11.406,0,0,0,1.791-4.14l0.162-.8h1.667a4.391,4.391,0,0,0,.477-2.49,1.748,1.748,0,0,0-.343-1.14H377.54l0.052-1.2c0-.05.008-0.11,0.008-0.17a6.935,6.935,0,1,0-13.869,0c0,0.06,0,.12.009,0.17l0.057,1.21h-1.035a1.6,1.6,0,0,0-.349,1.13,4.385,4.385,0,0,0,.476,2.49h1.667l0.162,0.8a11.406,11.406,0,0,0,1.791,4.14A5.706,5.706,0,0,1,367.7,1910c0,2.6-2.888,3.81-5.681,4.97-2.055.86-4.168,1.75-4.909,3.03h13.554v2H354.858v-1c0-3.19,3.4-4.62,6.409-5.87,2.192-.92,4.459-1.87,4.459-3.13a4.159,4.159,0,0,0-.882-1.99,13.584,13.584,0,0,1-1.875-4.01h-0.207c-1.535,0-2.338-2.07-2.338-4.12a3.615,3.615,0,0,1,1.338-3.24,8.908,8.908,0,0,1,17.807,0,3.615,3.615,0,0,1,1.339,3.24C380.908,1901.93,380.1,1904,378.569,1904Zm7.9,16h-5.928v-2h5.928v2Z" transform="translate(-354.844 -1888)"/>
</svg>
