<svg xmlns="http://www.w3.org/2000/svg" width="25.125" height="20.375" viewBox="0 0 25.125 20.375">
  <metadata><?xpacket begin="﻿" id="W5M0MpCehiHzreSzNTczkc9d"?>
<x:xmpmeta xmlns:x="adobe:ns:meta/" x:xmptk="Adobe XMP Core 5.6-c138 79.159824, 2016/09/14-01:09:01        ">
   <rdf:RDF xmlns:rdf="http://www.w3.org/1999/02/22-rdf-syntax-ns#">
      <rdf:Description rdf:about=""/>
   </rdf:RDF>
</x:xmpmeta>
                                                                                                    
                                                                                                    
                                                                                                    
                                                                                                    
                                                                                                    
                                                                                                    
                                                                                                    
                                                                                                    
                                                                                                    
                                                                                                    
                                                                                                    
                                                                                                    
                                                                                                    
                                                                                                    
                                                                                                    
                                                                                                    
                                                                                                    
                                                                                                    
                                                                                                    
                                                                                                    
                           
<?xpacket end="w"?></metadata>
<defs>
    <style>
      .cls-1 {
        fill: #2b2a29;
        fill-rule: evenodd;
      }
    </style>
  </defs>
  <path id="Statistics" class="cls-1" d="M352.022,401.28l0.948-.492a28.827,28.827,0,0,1,1.836,4.782c1.052,3.47,3.031,5.625,5.164,5.625h5.209v1.072h-25.1V391.9h1.068V411.2h2.411c2.561,0,4.94-3.04,6.207-7.935,1.938-7.484,3.873-10.822,6.274-10.822s4.337,3.338,6.275,10.822a15.777,15.777,0,0,0,2.746,5.973l-0.825.681a16.847,16.847,0,0,1-2.955-6.384c-2.144-8.282-4.034-10.02-5.241-10.02s-3.095,1.738-5.24,10.019c-0.941,3.635-2.454,6.289-4.276,7.666h10.525a10.438,10.438,0,0,1-3.26-5.313A28.2,28.2,0,0,0,352.022,401.28Zm-7.47,4.6a12.5,12.5,0,0,1-1.917,3.942l-0.85-.649a11.446,11.446,0,0,0,1.744-3.605c1.633-5.38,3.339-7.886,5.371-7.886a2.737,2.737,0,0,1,1.751.686l-0.677.829C348.149,397.7,346.342,399.982,344.552,405.882Z" transform="translate(-340.063 -391.906)"/>
</svg>
