<svg xmlns="http://www.w3.org/2000/svg" width="24" height="23.969" viewBox="0 0 24 23.969">
  <metadata><?xpacket begin="﻿" id="W5M0MpCehiHzreSzNTczkc9d"?>
<x:xmpmeta xmlns:x="adobe:ns:meta/" x:xmptk="Adobe XMP Core 5.6-c138 79.159824, 2016/09/14-01:09:01        ">
   <rdf:RDF xmlns:rdf="http://www.w3.org/1999/02/22-rdf-syntax-ns#">
      <rdf:Description rdf:about=""/>
   </rdf:RDF>
</x:xmpmeta>
                                                                                                    
                                                                                                    
                                                                                                    
                                                                                                    
                                                                                                    
                                                                                                    
                                                                                                    
                                                                                                    
                                                                                                    
                                                                                                    
                                                                                                    
                                                                                                    
                                                                                                    
                                                                                                    
                                                                                                    
                                                                                                    
                                                                                                    
                                                                                                    
                                                                                                    
                                                                                                    
                           
<?xpacket end="w"?></metadata>
<defs>
    <style>
      .cls-1 {
        fill: #2b2a29;
        fill-rule: evenodd;
      }
    </style>
  </defs>
  <path id="subscriptions" class="cls-1" d="M344.025,606.929a0.69,0.69,0,0,1-.247.158l-0.01.007-7.838,2.862a0.707,0.707,0,0,1-.906-0.9l2.865-7.832s0-.007.006-0.011a0.714,0.714,0,0,1,.158-0.246l14.768-14.757a0.706,0.706,0,0,1,1,0l4.972,4.969a0.7,0.7,0,0,1,0,1Zm10.965-12.953-1.487-1.487-11.465,11.457,1.487,1.486Zm-18.117,14.133,5.37-1.962-3.407-3.4Zm2.678-6.648,1.488,1.487L352.5,591.491,351.016,590ZM353.32,587.7l-1.305,1.3L354,590.992h0l1.987,1.985,1.305-1.3Zm-6.33,20.882h11.3a0.706,0.706,0,0,1,0,1.412h-11.3A0.706,0.706,0,0,1,346.99,608.584Z" transform="translate(-335 -586.031)"/>
</svg>
