<?xml version="1.0" standalone="no"?>
<!DOCTYPE svg PUBLIC "-//W3C//DTD SVG 20010904//EN"
 "http://www.w3.org/TR/2001/REC-SVG-20010904/DTD/svg10.dtd">
<svg version="1.0" xmlns="http://www.w3.org/2000/svg"
 width="878.000000pt" height="981.000000pt" viewBox="0 0 878.000000 981.000000"
 preserveAspectRatio="xMidYMid meet">

<g transform="translate(0.000000,981.000000) scale(0.100000,-0.100000)"
fill="#000000" stroke="none">
<path d="M4145 9799 c-755 -77 -1432 -483 -1849 -1109 -493 -738 -561 -1671
-181 -2475 122 -260 280 -482 499 -700 220 -219 406 -352 678 -485 166 -81
320 -138 489 -179 237 -57 319 -66 614 -66 290 0 384 11 617 70 995 251 1746
1104 1873 2125 20 163 20 472 0 627 -109 838 -614 1552 -1365 1932 -252 128
-498 206 -780 246 -135 20 -466 28 -595 14z m433 -700 c606 -65 1132 -423
1416 -961 100 -189 171 -417 197 -631 18 -154 6 -435 -25 -578 -165 -769 -774
-1333 -1550 -1435 -143 -19 -404 -14 -531 9 -404 75 -749 261 -1018 546 -640
681 -660 1725 -48 2438 375 437 982 675 1559 612z"/>
<path d="M2062 4365 c-580 -120 -1175 -541 -1535 -1085 -144 -218 -286 -564
-377 -921 -69 -271 -118 -601 -140 -950 -12 -186 -7 -226 39 -318 66 -129 159
-199 454 -341 731 -351 1747 -602 2817 -695 635 -55 1406 -58 2020 -10 1148
92 2160 334 2935 704 207 99 298 156 366 229 116 124 140 203 128 422 -24 441
-98 874 -204 1180 -195 567 -311 766 -640 1096 -298 299 -631 511 -985 628
-211 70 -318 89 -485 84 -164 -5 -203 -16 -370 -105 -421 -223 -874 -351
-1390 -394 -177 -15 -608 -6 -765 16 -470 64 -826 173 -1200 367 -195 101
-259 118 -429 117 -91 0 -157 -7 -239 -24z m551 -690 c38 -8 128 -39 200 -69
223 -92 394 -140 672 -186 619 -103 1175 -105 1782 -4 281 46 479 102 723 204
145 61 219 74 374 67 586 -29 1195 -457 1438 -1012 17 -38 47 -106 68 -150 43
-91 101 -265 131 -393 52 -225 84 -561 60 -635 -16 -46 -100 -140 -155 -172
-112 -65 -442 -186 -733 -269 -1457 -417 -3586 -458 -5173 -100 -508 115
-1029 294 -1177 405 -53 39 -96 101 -113 158 -22 76 33 490 95 714 48 177 166
454 263 617 226 382 621 684 1036 791 189 49 379 62 509 34z"/>
</g>
</svg>
